<?xml version="1.0" encoding="utf-8"?>
<!-- Generator: Adobe Illustrator 19.1.0, SVG Export Plug-In . SVG Version: 6.00 Build 0)  -->
<svg version="1.1" id="Layer_1" xmlns="http://www.w3.org/2000/svg" xmlns:xlink="http://www.w3.org/1999/xlink" x="0px" y="0px"
	 viewBox="0 0 116 18" style="enable-background:new 0 0 116 18;" xml:space="preserve">
<style type="text/css">
	.st0{fill:#FFFFFF;}
</style>
<g>
	<path class="st0" d="M0,17.6v-17h3.7v17H0z"/>
	<path class="st0" d="M19,11.6l-0.2-5.3V0.6h3.7v17h-3.2L11,6.7l0.1,5.6v5.3H7.4v-17h3.2L19,11.6z"/>
	<path class="st0" d="M26.3,17.6v-17h12v3.1h-8.8v4.6h8.4v3h-8.4v6.3H26.3z"/>
	<path class="st0" d="M55.7,0.6v9.7c0,5-3,7.6-7.2,7.6c-4,0-7.4-2.5-7.4-7.6V0.6h3.1v9.7c0,3.1,1.7,4.7,4.3,4.7
		c2.6,0,4.1-1.8,4.1-4.7V0.6H55.7z"/>
	<path class="st0" d="M69.4,4.7c-0.6-1-2.1-1.9-4-1.9c-2.3,0-3.5,1-3.5,2.3c0,1.5,1.7,1.9,3.7,2.1c3.5,0.4,6.7,1.4,6.7,5.4
		c0,3.8-3.3,5.4-7,5.4c-3.4,0-6-1.1-7.3-4.2l2.6-1.4c0.7,1.9,2.7,2.7,4.7,2.7c2,0,3.8-0.7,3.8-2.5c0-1.6-1.6-2.3-3.9-2.5
		c-3.4-0.4-6.6-1.3-6.6-5.1c0-3.5,3.4-4.9,6.5-4.9c2.6,0,5.3,0.8,6.6,3.4L69.4,4.7z"/>
	<path class="st0" d="M75.3,17.6v-17h3.1v17H75.3z"/>
	<path class="st0" d="M98.5,9.2c0,4.4-2.7,8.8-8.6,8.8c-5.9,0-8.6-4.3-8.6-8.8c0-5.4,3.8-9,8.6-9C95.7,0.3,98.5,4.8,98.5,9.2z
		 M89.9,15c3.9,0,5.4-3,5.5-5.8c0-2.8-1.5-6-5.4-6.1c-3.5,0-5.6,2.7-5.6,6.1C84.5,12,86,15,89.9,15z"/>
	<path class="st0" d="M112.9,12V0.6h3.1v17h-2.5l-8.9-11.3v11.3h-3.1v-17h2.5L112.9,12z"/>
</g>
</svg>
